<svg xmlns="http://www.w3.org/2000/svg" width="1300" height="1000" viewBox="0 0 1300 1000">
<defs><linearGradient id="bg" x2="1" y2="1"><stop stop-color="#dce5df"/><stop offset="1" stop-color="#b8cbc4"/></linearGradient><filter id="shadow" x="-30%" y="-30%" width="170%" height="180%"><feDropShadow dx="0" dy="24" stdDeviation="22" flood-color="#253f38" flood-opacity=".16"/></filter></defs>
<rect width="1300" height="1000" fill="url(#bg)"/>
<g font-family="Arial, sans-serif" fill="#263d35"><text x="60" y="66" font-size="18" letter-spacing="2">WNTC / UI DESIGN STUDIES</text><text x="60" y="177" font-size="66" letter-spacing="-3">Designed for everyday.</text><text x="62" y="218" font-size="18" letter-spacing="1">INTERFACE SYSTEMS / WEB &amp; MOBILE</text></g>
<g transform="translate(65 300) rotate(-3 520 300)" filter="url(#shadow)">
<rect width="1050" height="595" rx="14" fill="#fafcf9"/>
<path d="M14 0H1036Q1050 0 1050 14V40H0V14Q0 0 14 0" fill="#edf1ec"/>
<g fill="#b6c3b9"><circle cx="23" cy="20" r="4"/><circle cx="39" cy="20" r="4"/><circle cx="55" cy="20" r="4"/></g>
<path d="M192 40V595" stroke="#e2e8e1"/>
<g font-family="Arial, sans-serif" fill="#233a31"><text x="25" y="89" font-size="26" font-weight="bold">folio.</text>
<rect x="16" y="132" width="156" height="38" rx="6" fill="#dfead9"/><g font-size="13"><text x="32" y="157">Overview</text><text x="32" y="203">Projects</text><text x="32" y="249">Schedule</text><text x="32" y="295">Library</text></g>
<text x="222" y="91" font-size="12" fill="#748278">WORKSPACE / OVERVIEW</text><text x="222" y="135" font-size="30">A little clarity, every day.</text>
<rect x="222" y="166" width="238" height="107" rx="9" fill="#233e33"/><g fill="#eef7df"><text x="242" y="195" font-size="12">PROJECTS IN PROGRESS</text><text x="242" y="247" font-size="36">12</text></g>
<rect x="478" y="166" width="238" height="107" rx="9" fill="#ebf0e6"/><text x="498" y="195" font-size="12">TASKS COMPLETED</text><text x="498" y="247" font-size="36">84</text>
<rect x="734" y="166" width="286" height="107" rx="9" fill="#d9e7c0"/><text x="754" y="195" font-size="12">WEEKLY PROGRESS</text><text x="754" y="247" font-size="36">+24%</text>
<rect x="222" y="296" width="494" height="268" rx="9" fill="white" stroke="#e3e9df"/><text x="244" y="328" font-size="16">Activity overview</text>
<path d="M244 388H691M244 443H691M244 498H691" stroke="#eff2ec"/>
<path d="M244 491C275 491 285 430 324 447S378 473 414 412 472 440 510 391 560 422 595 374 650 403 691 356" fill="none" stroke="#769950" stroke-width="4"/>
<rect x="734" y="296" width="286" height="268" rx="9" fill="white" stroke="#e3e9df"/><text x="754" y="328" font-size="16">Your focus</text>
<circle cx="877" cy="426" r="65" fill="none" stroke="#ecf1e6" stroke-width="17"/><circle cx="877" cy="426" r="65" fill="none" stroke="#abc878" stroke-width="17" stroke-dasharray="305 410" transform="rotate(-90 877 426)"/><text x="877" y="435" text-anchor="middle" font-size="30">75%</text>
<text x="756" y="545" font-size="11" fill="#778371">A productive week starts with focus.</text></g></g>
<g transform="translate(995 422) rotate(8 107 223)" filter="url(#shadow)"><rect width="214" height="445" rx="30" fill="#20352d"/><rect x="7" y="7" width="200" height="431" rx="24" fill="#f7faf3"/><rect x="75" y="14" width="65" height="15" rx="8" fill="#20352d"/>
<g font-family="Arial, sans-serif" fill="#253e32"><text x="24" y="69" font-size="19" font-weight="bold">folio.</text><text x="24" y="108" font-size="12">Hello, Alex</text><text x="24" y="135" font-size="21">Find your focus.</text>
<rect x="20" y="157" width="174" height="125" rx="12" fill="#dbe9c5"/><text x="35" y="183" font-size="10">THIS WEEK</text><text x="35" y="227" font-size="32">75%</text><rect x="35" y="250" width="144" height="5" rx="2" fill="#b8c5a4"/><rect x="35" y="250" width="108" height="5" rx="2" fill="#354e36"/>
<text x="24" y="312" font-size="12">Upcoming</text><rect x="20" y="327" width="174" height="48" rx="7" fill="white" stroke="#e0e7dc"/><circle cx="37" cy="351" r="6" fill="#abc878"/><text x="52" y="355" font-size="10">Design review</text><path d="M76 421H138" stroke="#23392d" stroke-width="4" stroke-linecap="round"/></g></g>
<g fill="#263d35" font-family="Arial,sans-serif" font-size="14" letter-spacing="1"><text x="60" y="960">STUDIO CONCEPT / 04</text><text x="1240" y="960" text-anchor="end" font-size="30">↗</text></g></svg>